<svg width="1968" height="1287" xmlns="http://www.w3.org/2000/svg" xmlns:xlink="http://www.w3.org/1999/xlink" xml:space="preserve" overflow="hidden"><g transform="translate(-692 -488)"><rect x="695.5" y="502.5" width="544" height="140" stroke="#000000" stroke-width="6.875" stroke-miterlimit="8" fill="none"/><text font-family="DengXian,DengXian_MSFontService,sans-serif" font-weight="700" font-size="48" transform="matrix(1 0 0 1 747.995 588)">Brake Pedal Pressed</text><rect x="695.5" y="711.5" width="544" height="140" stroke="#000000" stroke-width="6.875" stroke-miterlimit="8" fill="none"/><text font-family="DengXian,DengXian_MSFontService,sans-serif" font-weight="700" font-size="48" transform="matrix(1 0 0 1 813.307 768)">Throttle Pedal </text><text font-family="DengXian,DengXian_MSFontService,sans-serif" font-weight="700" font-size="48" transform="matrix(1 0 0 1 878.895 826)">Position</text><rect x="695.5" y="921.5" width="544" height="139" stroke="#000000" stroke-width="6.875" stroke-miterlimit="8" fill="none"/><text font-family="DengXian,DengXian_MSFontService,sans-serif" font-weight="700" font-size="41" transform="matrix(1 0 0 1 741.693 980)">Automatic Transmission </text><text font-family="DengXian,DengXian_MSFontService,sans-serif" font-weight="700" font-size="41" transform="matrix(1 0 0 1 837.943 1029)">Selector State</text><rect x="695.5" y="1130.5" width="544" height="139" stroke="#000000" stroke-width="6.875" stroke-miterlimit="8" fill="none"/><text font-family="DengXian,DengXian_MSFontService,sans-serif" font-weight="700" font-size="48" transform="matrix(1 0 0 1 732.812 1216)">Vehicle Speed (km/h)</text><rect x="1499.5" y="502.5" width="455" height="767" stroke="#000000" stroke-width="6.875" stroke-miterlimit="8" fill="none"/><text font-family="DengXian,DengXian_MSFontService,sans-serif" font-weight="700" font-size="64" transform="matrix(1 0 0 1 1577.88 830)">One Pedal </text><text font-family="DengXian,DengXian_MSFontService,sans-serif" font-weight="700" font-size="64" transform="matrix(1 0 0 1 1533.2 907)">Management</text><text font-family="DengXian,DengXian_MSFontService,sans-serif" font-weight="700" font-size="64" transform="matrix(1 0 0 1 1667.56 984)">ECU</text><rect x="2214.5" y="711.5" width="442" height="140" stroke="#000000" stroke-width="6.875" stroke-miterlimit="8" fill="none"/><text font-family="DengXian,DengXian_MSFontService,sans-serif" font-weight="700" font-size="41" transform="matrix(1 0 0 1 2287.4 771)">Torque Request </text><text font-family="DengXian,DengXian_MSFontService,sans-serif" font-weight="700" font-size="41" transform="matrix(1 0 0 1 2387.36 820)">(Nm)</text><rect x="2214.5" y="921.5" width="442" height="139" stroke="#000000" stroke-width="6.875" stroke-miterlimit="8" fill="none"/><text font-family="DengXian,DengXian_MSFontService,sans-serif" font-weight="700" font-size="41" transform="matrix(1 0 0 1 2337.81 980)">Automatic </text><text font-family="DengXian,DengXian_MSFontService,sans-serif" font-weight="700" font-size="41" transform="matrix(1 0 0 1 2259.33 1029)">Transmission State</text><path d="M1239.5 569.062 1476.49 569.063 1476.49 575.938 1239.5 575.937ZM1471.9 558.75 1499.4 572.5 1471.9 586.25Z" fill="#156082"/><path d="M4.77318e-06-3.4375 236.987-3.43717 236.987 3.43783-4.77318e-06 3.4375ZM232.404-13.7497 259.904 0.000360892 232.404 13.7503Z" fill="#156082" transform="matrix(1 0 0 -1 1239.5 781.5)"/><path d="M4.77318e-06-3.4375 236.987-3.43717 236.987 3.43783-4.77318e-06 3.4375ZM232.404-13.7497 259.904 0.000360892 232.404 13.7503Z" fill="#156082" transform="matrix(1 0 0 -1 1239.5 990.5)"/><path d="M4.77318e-06-3.4375 236.987-3.43717 236.987 3.43783-4.77318e-06 3.4375ZM232.404-13.7497 259.904 0.000360892 232.404 13.7503Z" fill="#156082" transform="matrix(1 0 0 -1 1239.5 1199.5)"/><path d="M4.77318e-06-3.4375 236.987-3.43717 236.987 3.43783-4.77318e-06 3.4375ZM232.404-13.7497 259.904 0.000360892 232.404 13.7503Z" fill="#156082" transform="matrix(1 0 0 -1 1954.5 781.5)"/><path d="M4.77318e-06-3.4375 236.987-3.43717 236.987 3.43783-4.77318e-06 3.4375ZM232.404-13.7497 259.904 0.000360892 232.404 13.7503Z" fill="#156082" transform="matrix(1 0 0 -1 1954.5 990.5)"/><text font-family="DengXian,DengXian_MSFontService,sans-serif" font-weight="700" font-size="46" transform="matrix(1 0 0 1 1322.09 547)">CAN</text><text font-family="DengXian,DengXian_MSFontService,sans-serif" font-weight="700" font-size="46" transform="matrix(1 0 0 1 1294.87 747)">Analog</text><text font-family="DengXian,DengXian_MSFontService,sans-serif" font-weight="700" font-size="46" transform="matrix(1 0 0 1 1322.09 965)">CAN</text><text font-family="DengXian,DengXian_MSFontService,sans-serif" font-weight="700" font-size="46" transform="matrix(1 0 0 1 1322.09 1165)">CAN</text><text font-family="DengXian,DengXian_MSFontService,sans-serif" font-weight="700" font-size="46" transform="matrix(1 0 0 1 2037.06 754)">CAN</text><text font-family="DengXian,DengXian_MSFontService,sans-serif" font-weight="700" font-size="46" transform="matrix(1 0 0 1 2037.06 954)">CAN</text><rect x="1455.5" y="1381.5" width="544" height="139" stroke="#000000" stroke-width="6.875" stroke-miterlimit="8" fill="none"/><text font-family="DengXian,DengXian_MSFontService,sans-serif" font-weight="700" font-size="48" transform="matrix(1 0 0 1 1573.01 1438)">Throttle Pedal </text><text font-family="DengXian,DengXian_MSFontService,sans-serif" font-weight="700" font-size="48" transform="matrix(1 0 0 1 1638.6 1496)">Position</text><path d="M3.4375-1.1109e-05 3.43779 88.7557-3.43721 88.7557-3.4375 1.1109e-05ZM13.7503 84.1723 0.000360892 111.672-13.7497 84.1724Z" fill="#156082" transform="matrix(-1 0 0 1 1727.5 1269.5)"/><text font-family="DengXian,DengXian_MSFontService,sans-serif" font-weight="700" font-size="46" transform="matrix(1 0 0 1 1760.06 1340)">CAN</text><rect x="1455.5" y="1632.5" width="544" height="139" stroke="#000000" stroke-width="6.875" stroke-miterlimit="8" fill="none"/><text font-family="DengXian,DengXian_MSFontService,sans-serif" font-weight="700" font-size="48" transform="matrix(1 0 0 1 1491.94 1718)">Body Control Module</text><path d="M3.4375-1.1109e-05 3.43779 88.7557-3.43721 88.7557-3.4375 1.1109e-05ZM13.7503 84.1723 0.000360892 111.672-13.7497 84.1724Z" fill="#156082" transform="matrix(-1 0 0 1 1727.5 1520.5)"/><text font-family="DengXian,DengXian_MSFontService,sans-serif" font-weight="700" font-size="46" transform="matrix(1 0 0 1 1760.06 1591)">CAN</text></g></svg>