<svg width="2170" height="844" xmlns="http://www.w3.org/2000/svg" xmlns:xlink="http://www.w3.org/1999/xlink" xml:space="preserve" overflow="hidden"><g transform="translate(-723 -1503)"><path d="M1157.23 1945.26C1252.49 1842.94 1414.39 1838.83 1518.83 1936.08" stroke="#156082" stroke-width="6.875" stroke-miterlimit="8" fill="none" fill-rule="evenodd"/><path d="M1476.5 1532.5 2703.1 1532.5" stroke="#156082" stroke-width="6.875" stroke-miterlimit="8" fill="none" fill-rule="evenodd"/><path d="M2702.5 1534.5 2889.29 1891.48" stroke="#156082" stroke-width="6.875" stroke-miterlimit="8" fill="none" fill-rule="evenodd"/><path d="M2889.5 1891.5 2889.5 2101.12" stroke="#156082" stroke-width="6.875" stroke-miterlimit="8" fill="none" fill-rule="evenodd"/><path d="M0 0 435.849 321.698" stroke="#156082" stroke-width="6.875" stroke-miterlimit="8" fill="none" fill-rule="evenodd" transform="matrix(-1 0 0 1 1476.35 1532.5)"/><path d="M0 0 288.491 64.3399" stroke="#156082" stroke-width="6.875" stroke-miterlimit="8" fill="none" fill-rule="evenodd" transform="matrix(-1 0 0 1 1039.99 1853.5)"/><path d="M753.5 1918.5 753.5 2101.14" stroke="#156082" stroke-width="6.875" stroke-miterlimit="8" fill="none" fill-rule="evenodd"/><path d="M0 0 2137.74 0.000360892" stroke="#156082" stroke-width="6.875" stroke-miterlimit="8" fill="none" fill-rule="evenodd" transform="matrix(-1 0 0 1 2889.24 2100.5)"/><path d="M1144.5 2098C1144.5 1986.16 1235.16 1895.5 1347 1895.5 1458.84 1895.5 1549.5 1986.16 1549.5 2098 1549.5 2209.84 1458.84 2300.5 1347 2300.5 1235.16 2300.5 1144.5 2209.84 1144.5 2098Z" stroke="#000000" stroke-width="6.875" stroke-miterlimit="8" fill-rule="evenodd"/><path d="M2297.5 2098C2297.5 1986.16 2388.16 1895.5 2500 1895.5 2611.84 1895.5 2702.5 1986.16 2702.5 2098 2702.5 2209.84 2611.84 2300.5 2500 2300.5 2388.16 2300.5 2297.5 2209.84 2297.5 2098Z" stroke="#000000" stroke-width="6.875" stroke-miterlimit="8" fill-rule="evenodd"/><path d="M0 9.49995C-1.20947e-15 4.25327 4.25327-1.20947e-15 9.49995-2.41894e-15 14.7466-4.83788e-15 18.9999 4.25327 18.9999 9.49995 18.9999 14.7466 14.7466 18.9999 9.49995 18.9999 4.25327 18.9999-6.04735e-15 14.7466 0 9.49995Z" stroke="#042433" stroke-width="6.875" stroke-miterlimit="8" fill="none" fill-rule="evenodd" transform="matrix(-1 0 0 1 1998.5 1741.5)"/><path d="M1998.5 1748.06 2152.92 1748.06 2152.92 1754.94 1998.5 1754.94ZM2148.33 1737.75 2175.83 1751.5 2148.33 1765.25Z" fill="#156082"/><path d="M3.30892e-06-3.4375 351.999-3.43716 351.999 3.43784-3.30892e-06 3.4375ZM347.416-13.7497 374.916 0.000360892 347.416 13.7503Z" fill="#156082" transform="matrix(-1 0 0 1 1979.42 1751.5)"/><path d="M8.97234-10.5061 18.1334 18.8433-10.8428 8.56248Z" fill="#156082" transform="matrix(-1 0 0 1 1157.63 1945.5)"/><path d="M1346.5 2297.06 1712.32 2297.06 1712.32 2303.94 1346.5 2303.94ZM1707.74 2286.75 1735.24 2300.5 1707.74 2314.25Z" fill="#156082"/><path d="M2.81947e-06-3.4375 417.084-3.43716 417.084 3.43784-2.81947e-06 3.4375ZM412.5-13.7497 440 0.000360892 412.5 13.7503Z" fill="#156082" transform="matrix(-1 0 0 1 1191.5 1630.5)"/><path d="M1767.03 1653.18 1803.59 1653.18 1800.79 1665.62 1796.9 1665.62C1796.79 1663.54 1796.62 1661.9 1796.4 1660.7 1796.17 1659.5 1795.84 1658.63 1795.42 1658.11 1795 1657.58 1794.5 1657.22 1793.9 1657.03 1793.31 1656.84 1792.42 1656.75 1791.23 1656.75L1778.75 1656.75 1773.92 1678.8 1781.5 1678.8C1782.69 1678.8 1783.68 1678.63 1784.46 1678.31 1785.24 1677.98 1785.97 1677.4 1786.65 1676.55 1787.32 1675.69 1788.16 1674.24 1789.16 1672.19L1792.85 1672.19 1788.92 1689.29 1785.35 1689.29C1785.35 1686.56 1785.26 1684.85 1785.09 1684.16 1784.91 1683.48 1784.57 1683 1784.07 1682.75 1783.57 1682.49 1782.58 1682.36 1781.1 1682.36L1773.15 1682.36 1769.95 1696.71C1769.38 1699.25 1769.1 1701.36 1769.1 1703.03 1769.1 1703.87 1769.23 1704.52 1769.51 1705 1769.78 1705.47 1770.18 1705.81 1770.72 1706.03 1771.26 1706.25 1772.19 1706.41 1773.52 1706.52L1773.07 1708.5 1756.41 1708.5 1756.86 1706.52C1757.89 1706.35 1758.66 1706.09 1759.17 1705.73 1759.68 1705.36 1760.12 1704.85 1760.47 1704.21 1760.82 1703.56 1761.14 1702.77 1761.44 1701.83 1761.74 1700.9 1762.18 1699.1 1762.78 1696.42L1769.67 1665.22C1770.26 1662.52 1770.56 1660.38 1770.56 1658.82 1770.56 1657.49 1770.25 1656.57 1769.63 1656.06 1769.01 1655.55 1767.99 1655.25 1766.59 1655.17Z" fill-rule="evenodd"/><text fill="#000000" fill-opacity="0" font-family="Arial,Arial_MSFontService,sans-serif" font-size="55.3198" x="1756.41" y="1701.59">𝐹</text><path d="M1801.64 1694.93C1802.73 1694.93 1803.62 1695.17 1804.32 1695.65 1805.01 1696.13 1805.59 1696.82 1806.04 1697.73 1806.5 1698.65 1806.88 1699.77 1807.18 1701.12 1807.47 1702.46 1807.79 1703.99 1808.13 1705.72L1808.52 1705.72C1809.71 1704.15 1810.74 1702.79 1811.61 1701.64 1812.49 1700.48 1813.27 1699.51 1813.95 1698.72 1814.64 1697.92 1815.25 1697.28 1815.8 1696.78 1816.34 1696.28 1816.88 1695.9 1817.39 1695.63 1817.91 1695.37 1818.44 1695.18 1818.99 1695.08 1819.53 1694.98 1820.14 1694.93 1820.82 1694.93 1821.81 1694.93 1822.71 1695.11 1823.53 1695.47L1822.04 1701.34 1819.57 1701.34C1819.51 1700.48 1819.19 1700.06 1818.61 1700.06 1818.39 1700.06 1818.16 1700.1 1817.9 1700.18 1817.64 1700.26 1817.33 1700.42 1816.97 1700.65 1816.62 1700.89 1816.21 1701.22 1815.74 1701.65 1815.27 1702.08 1814.72 1702.63 1814.09 1703.32 1813.45 1704 1812.73 1704.84 1811.91 1705.84 1811.1 1706.83 1810.16 1708 1809.11 1709.35 1809.65 1712.09 1810.11 1714.29 1810.5 1715.93 1810.88 1717.58 1811.26 1718.84 1811.61 1719.72 1811.97 1720.59 1812.33 1721.16 1812.69 1721.43 1813.04 1721.7 1813.45 1721.83 1813.91 1721.83 1814.24 1721.83 1814.56 1721.79 1814.85 1721.71 1815.13 1721.63 1815.43 1721.46 1815.74 1721.19 1816.05 1720.92 1816.39 1720.54 1816.77 1720.03 1817.14 1719.52 1817.59 1718.85 1818.11 1718.02L1820.34 1719.48C1819.47 1720.79 1818.69 1721.86 1818.02 1722.69 1817.34 1723.53 1816.69 1724.18 1816.05 1724.66 1815.42 1725.14 1814.76 1725.46 1814.09 1725.63 1813.41 1725.8 1812.64 1725.88 1811.76 1725.88 1811.01 1725.88 1810.33 1725.78 1809.74 1725.57 1809.14 1725.36 1808.63 1724.98 1808.19 1724.42 1807.89 1724.08 1807.61 1723.63 1807.35 1723.07 1807.1 1722.5 1806.86 1721.89 1806.64 1721.23 1806.42 1720.58 1806.22 1719.9 1806.04 1719.19 1805.87 1718.49 1805.72 1717.83 1805.6 1717.21 1805.48 1716.6 1805.38 1716.05 1805.31 1715.56 1805.24 1715.07 1805.2 1714.71 1805.18 1714.47L1804.85 1714.47C1803.66 1716.06 1802.62 1717.45 1801.74 1718.63 1800.86 1719.81 1800.06 1720.82 1799.34 1721.67 1798.63 1722.51 1797.98 1723.21 1797.41 1723.75 1796.83 1724.3 1796.26 1724.73 1795.71 1725.05 1795.15 1725.37 1794.58 1725.58 1794 1725.7 1793.41 1725.82 1792.76 1725.88 1792.04 1725.88 1791.01 1725.88 1790.13 1725.7 1789.39 1725.35L1790.76 1719.54 1793.3 1719.54C1793.36 1720.41 1793.68 1720.85 1794.28 1720.85 1794.5 1720.83 1794.71 1720.79 1794.92 1720.73 1795.13 1720.67 1795.37 1720.54 1795.65 1720.36 1795.93 1720.17 1796.28 1719.87 1796.71 1719.46 1797.13 1719.06 1797.67 1718.49 1798.33 1717.77 1798.98 1717.04 1799.79 1716.13 1800.74 1715.04 1801.7 1713.95 1802.84 1712.6 1804.17 1710.99 1803.81 1709.32 1803.5 1707.87 1803.23 1706.64 1802.96 1705.41 1802.71 1704.35 1802.48 1703.47 1802.26 1702.58 1802.03 1701.86 1801.81 1701.31 1801.6 1700.75 1801.37 1700.31 1801.14 1699.98 1800.92 1699.66 1800.67 1699.42 1800.4 1699.28 1800.13 1699.14 1799.82 1699.06 1799.46 1699.05 1799.12 1699.05 1798.81 1699.1 1798.52 1699.21 1798.24 1699.32 1797.94 1699.51 1797.63 1699.79 1797.32 1700.07 1796.98 1700.45 1796.62 1700.95 1796.25 1701.45 1795.83 1702.09 1795.35 1702.89L1793.06 1701.4C1793.87 1700.19 1794.61 1699.16 1795.26 1698.33 1795.92 1697.5 1796.56 1696.83 1797.2 1696.33 1797.83 1695.84 1798.5 1695.48 1799.21 1695.26 1799.91 1695.04 1800.72 1694.93 1801.64 1694.93Z" fill-rule="evenodd"/><text fill="#000000" fill-opacity="0" font-family="Arial,Arial_MSFontService,sans-serif" font-size="30.9468" x="1789.39" y="1722.01">𝑥</text><path d="M2036.85 1653.18 2073.41 1653.18 2070.61 1665.62 2066.72 1665.62C2066.61 1663.54 2066.45 1661.9 2066.22 1660.7 2065.99 1659.5 2065.66 1658.63 2065.24 1658.11 2064.82 1657.58 2064.32 1657.22 2063.72 1657.03 2063.13 1656.84 2062.24 1656.75 2061.05 1656.75L2048.57 1656.75 2043.74 1678.79 2051.32 1678.79C2052.51 1678.79 2053.5 1678.63 2054.28 1678.31 2055.06 1677.98 2055.79 1677.4 2056.47 1676.55 2057.14 1675.69 2057.98 1674.24 2058.98 1672.19L2062.67 1672.19 2058.74 1689.29 2055.17 1689.29C2055.17 1686.56 2055.08 1684.85 2054.91 1684.16 2054.73 1683.48 2054.4 1683 2053.9 1682.75 2053.4 1682.49 2052.4 1682.36 2050.92 1682.36L2042.97 1682.36 2039.77 1696.71C2039.2 1699.25 2038.92 1701.35 2038.92 1703.03 2038.92 1703.87 2039.06 1704.52 2039.33 1705 2039.6 1705.47 2040 1705.81 2040.54 1706.03 2041.08 1706.25 2042.01 1706.41 2043.34 1706.52L2042.89 1708.5 2026.24 1708.5 2026.68 1706.52C2027.71 1706.35 2028.48 1706.09 2028.99 1705.73 2029.5 1705.36 2029.94 1704.85 2030.29 1704.21 2030.64 1703.56 2030.96 1702.77 2031.26 1701.83 2031.56 1700.9 2032 1699.1 2032.6 1696.42L2039.49 1665.22C2040.08 1662.52 2040.38 1660.38 2040.38 1658.81 2040.38 1657.49 2040.07 1656.57 2039.45 1656.06 2038.83 1655.55 2037.81 1655.25 2036.41 1655.17Z" fill-rule="evenodd"/><text fill="#000000" fill-opacity="0" font-family="Arial,Arial_MSFontService,sans-serif" font-size="55.3198" x="2026.24" y="1701.59">𝐹</text><path d="M2086.31 1697.88C2085.14 1697.88 2084.05 1698.14 2083.05 1698.64 2082.05 1699.15 2081.13 1699.84 2080.29 1700.73 2079.46 1701.61 2078.72 1702.63 2078.06 1703.8 2077.41 1704.96 2076.85 1706.2 2076.41 1707.52 2075.96 1708.84 2075.62 1710.19 2075.4 1711.57 2075.17 1712.95 2075.05 1714.29 2075.05 1715.61 2075.05 1717.75 2075.36 1719.34 2075.96 1720.39 2076.57 1721.43 2077.54 1721.95 2078.9 1721.95 2079.81 1721.95 2080.82 1721.64 2081.93 1721.03 2083.05 1720.41 2084.12 1719.52 2085.16 1718.36 2086.21 1717.2 2087.17 1715.78 2088.04 1714.12 2088.91 1712.45 2089.57 1710.57 2090 1708.49 2090.22 1707.41 2090.42 1706.34 2090.6 1705.27 2090.78 1704.2 2090.87 1703.21 2090.87 1702.32 2090.87 1700.71 2090.51 1699.57 2089.78 1698.9 2089.06 1698.22 2087.9 1697.88 2086.31 1697.88ZM2099.42 1684.69 2100.94 1684.69 2094.03 1715.07C2093.75 1716.24 2093.56 1717.17 2093.47 1717.87 2093.39 1718.56 2093.34 1719.19 2093.34 1719.75 2093.34 1720.5 2093.49 1721.05 2093.8 1721.38 2094.11 1721.72 2094.55 1721.89 2095.13 1721.89 2095.49 1721.89 2095.84 1721.82 2096.19 1721.68 2096.53 1721.54 2096.91 1721.32 2097.32 1721.03 2097.72 1720.73 2098.17 1720.35 2098.66 1719.88 2099.14 1719.41 2099.7 1718.85 2100.31 1718.2 2100.63 1718.53 2100.96 1718.87 2101.29 1719.19 2101.63 1719.52 2101.96 1719.84 2102.28 1720.16 2101.28 1721.18 2100.38 1722.04 2099.57 1722.77 2098.75 1723.49 2097.96 1724.09 2097.2 1724.56 2096.43 1725.02 2095.68 1725.36 2094.95 1725.57 2094.21 1725.78 2093.45 1725.88 2092.66 1725.88 2091.23 1725.88 2090.11 1725.42 2089.32 1724.5 2088.53 1723.57 2088.13 1722.31 2088.13 1720.7 2088.13 1719.81 2088.27 1718.95 2088.55 1718.14L2088.13 1717.96C2087.12 1719.37 2086.13 1720.57 2085.18 1721.56 2084.23 1722.56 2083.28 1723.37 2082.35 1724.02 2081.42 1724.67 2080.47 1725.14 2079.52 1725.43 2078.57 1725.73 2077.57 1725.88 2076.54 1725.88 2074.18 1725.88 2072.35 1725.03 2071.06 1723.33 2069.77 1721.64 2069.13 1719.17 2069.13 1715.93 2069.13 1714.01 2069.33 1712.16 2069.74 1710.38 2070.14 1708.6 2070.72 1706.93 2071.46 1705.37 2072.21 1703.82 2073.1 1702.4 2074.13 1701.11 2075.16 1699.83 2076.29 1698.74 2077.52 1697.82 2078.76 1696.91 2080.07 1696.2 2081.46 1695.69 2082.85 1695.19 2084.29 1694.93 2085.78 1694.93 2087.09 1694.93 2088.29 1695.06 2089.38 1695.32 2090.47 1695.58 2091.51 1696.1 2092.51 1696.87 2092.84 1695.62 2093.11 1694.55 2093.31 1693.67 2093.51 1692.78 2093.67 1691.97 2093.8 1691.23 2093.93 1690.48 2094 1689.86 2094 1689.36 2094 1688.95 2093.94 1688.6 2093.83 1688.32 2093.72 1688.04 2093.53 1687.82 2093.25 1687.64 2092.97 1687.46 2092.58 1687.33 2092.07 1687.25 2091.57 1687.17 2090.93 1687.11 2090.15 1687.07L2090.54 1685.05Z" fill-rule="evenodd"/><text fill="#000000" fill-opacity="0" font-family="Arial,Arial_MSFontService,sans-serif" font-size="41.1929" x="2069.13" y="1720.73">𝑑</text><path d="M2140.83 1649.94 2141.92 1653.06C2135.6 1655.14 2130.92 1659.2 2127.88 1665.24 2124.84 1671.28 2123.32 1678.86 2123.32 1687.99 2123.32 1697.45 2124.84 1705.25 2127.88 1711.38 2130.92 1717.51 2135.56 1721.62 2141.8 1723.7L2140.83 1726.82C2132.91 1724.74 2126.85 1720.26 2122.63 1713.38 2118.42 1706.51 2116.31 1698.18 2116.31 1688.4 2116.31 1678.65 2118.42 1670.32 2122.65 1663.41 2126.88 1656.51 2132.94 1652.02 2140.83 1649.94Z" fill-rule="evenodd"/><text fill="#000000" fill-opacity="0" font-family="Arial,Arial_MSFontService,sans-serif" font-size="76.8804" x="2116.31" y="1717.21">(</text><path d="M2181.77 1668.91C2183.71 1668.91 2185.12 1669.41 2185.98 1670.43 2186.85 1671.44 2187.28 1672.8 2187.28 1674.5 2187.28 1675.8 2187.05 1677.28 2186.59 1678.96 2186.13 1680.63 2185.48 1682.4 2184.65 1684.27 2183.81 1686.13 2182.81 1688.04 2181.65 1690 2180.49 1691.96 2179.2 1693.86 2177.8 1695.71 2176.39 1697.57 2174.89 1699.31 2173.3 1700.94 2171.71 1702.58 2170.05 1704 2168.33 1705.22 2166.62 1706.43 2164.88 1707.4 2163.11 1708.12 2161.34 1708.83 2159.57 1709.19 2157.82 1709.19 2157.03 1709.19 2156.38 1708.99 2155.85 1708.6 2155.33 1708.21 2154.9 1707.66 2154.58 1706.94 2154.25 1706.23 2154.02 1705.38 2153.89 1704.41 2153.75 1703.44 2153.68 1702.37 2153.68 1701.21 2153.68 1699.67 2153.78 1698.02 2153.97 1696.26 2154.16 1694.51 2154.4 1692.74 2154.7 1690.95L2156.4 1679.73C2156.51 1679.08 2156.6 1678.46 2156.66 1677.88 2156.73 1677.3 2156.76 1676.88 2156.76 1676.61 2156.76 1675.77 2156.63 1675.08 2156.36 1674.54 2156.09 1674 2155.63 1673.73 2154.98 1673.73 2154.47 1673.73 2153.91 1673.88 2153.32 1674.19 2152.72 1674.51 2152.12 1674.9 2151.52 1675.39 2150.91 1675.88 2150.32 1676.4 2149.75 1676.95 2149.19 1677.5 2148.66 1678.02 2148.17 1678.51L2146.23 1676.24C2147.06 1675.38 2147.96 1674.52 2148.9 1673.67 2149.85 1672.82 2150.85 1672.05 2151.9 1671.36 2152.95 1670.67 2154.06 1670.12 2155.22 1669.7 2156.39 1669.28 2157.57 1669.07 2158.79 1669.07 2159.82 1669.07 2160.65 1669.24 2161.3 1669.57 2161.95 1669.91 2162.46 1670.36 2162.82 1670.91 2163.19 1671.47 2163.44 1672.07 2163.57 1672.74 2163.71 1673.4 2163.78 1674.05 2163.78 1674.7 2163.78 1675.08 2163.76 1675.44 2163.73 1675.8 2163.71 1676.15 2163.67 1676.47 2163.61 1676.77L2161.34 1691.44C2161.1 1692.98 2160.9 1694.49 2160.74 1695.96 2160.57 1697.43 2160.49 1698.73 2160.49 1699.87 2160.49 1701 2160.56 1701.92 2160.7 1702.62 2160.83 1703.33 2161.09 1703.68 2161.47 1703.68 2162.36 1703.68 2163.48 1703.32 2164.83 1702.6 2166.18 1701.89 2167.6 1700.9 2169.08 1699.65 2170.57 1698.39 2172.06 1696.9 2173.54 1695.19 2175.03 1693.47 2176.37 1691.61 2177.55 1689.62 2178.74 1687.62 2179.71 1685.51 2180.45 1683.29 2181.2 1681.08 2181.57 1678.85 2181.57 1676.61 2181.57 1675.63 2181.36 1674.88 2180.94 1674.36 2180.52 1673.83 2179.86 1673.57 2178.97 1673.57 2177.84 1673.57 2176.79 1674.01 2175.83 1674.88 2174.87 1675.76 2173.88 1676.92 2172.85 1678.35L2170.54 1676.28C2171.19 1675.31 2171.96 1674.38 2172.83 1673.49 2173.71 1672.59 2174.64 1671.81 2175.63 1671.14 2176.62 1670.46 2177.64 1669.92 2178.69 1669.51 2179.74 1669.11 2180.77 1668.91 2181.77 1668.91Z" fill-rule="evenodd"/><text fill="#000000" fill-opacity="0" font-family="Arial,Arial_MSFontService,sans-serif" font-size="40.2842" x="2146.23" y="1704.15">𝑣</text><path d="M2193.12 1649.94C2201.01 1652.02 2207.07 1656.51 2211.29 1663.41 2215.52 1670.32 2217.64 1678.65 2217.64 1688.4 2217.64 1698.18 2215.53 1706.51 2211.31 1713.38 2207.1 1720.26 2201.03 1724.74 2193.12 1726.82L2192.15 1723.7C2198.39 1721.62 2203.03 1717.51 2206.07 1711.38 2209.11 1705.25 2210.63 1697.45 2210.63 1687.99 2210.63 1678.86 2209.11 1671.28 2206.09 1665.24 2203.06 1659.2 2198.37 1655.14 2192.02 1653.06Z" fill-rule="evenodd"/><text fill="#000000" fill-opacity="0" font-family="Arial,Arial_MSFontService,sans-serif" font-size="76.8804" x="2192.02" y="1717.21">)</text><path d="M1776.37 2268.79 1812.92 2268.79 1810.12 2281.23 1806.23 2281.23C1806.13 2279.15 1805.96 2277.51 1805.73 2276.31 1805.5 2275.11 1805.17 2274.24 1804.76 2273.72 1804.34 2273.19 1803.83 2272.83 1803.24 2272.64 1802.64 2272.45 1801.75 2272.36 1800.56 2272.36L1788.08 2272.36 1783.26 2294.41 1790.83 2294.41C1792.02 2294.41 1793.01 2294.24 1793.79 2293.92 1794.58 2293.6 1795.31 2293.01 1795.98 2292.16 1796.66 2291.31 1797.49 2289.85 1798.49 2287.8L1802.18 2287.8 1798.25 2304.9 1794.68 2304.9C1794.68 2302.17 1794.6 2300.46 1794.42 2299.78 1794.24 2299.09 1793.91 2298.61 1793.41 2298.36 1792.91 2298.1 1791.91 2297.97 1790.43 2297.97L1782.49 2297.97 1779.28 2312.32C1778.72 2314.86 1778.43 2316.97 1778.43 2318.64 1778.43 2319.48 1778.57 2320.13 1778.84 2320.61 1779.11 2321.08 1779.51 2321.42 1780.05 2321.64 1780.59 2321.86 1781.53 2322.02 1782.85 2322.13L1782.4 2324.11 1765.75 2324.11 1766.19 2322.13C1767.22 2321.96 1767.99 2321.7 1768.5 2321.34 1769.02 2320.97 1769.45 2320.46 1769.8 2319.82 1770.15 2319.17 1770.48 2318.38 1770.77 2317.45 1771.07 2316.51 1771.52 2314.71 1772.11 2312.04L1779 2280.83C1779.59 2278.13 1779.89 2275.99 1779.89 2274.43 1779.89 2273.1 1779.58 2272.18 1778.96 2271.67 1778.34 2271.16 1777.32 2270.86 1775.92 2270.78Z" fill-rule="evenodd"/><text fill="#000000" fill-opacity="0" font-family="Arial,Arial_MSFontService,sans-serif" font-size="55.3198" x="1765.75" y="2317.2">𝐹</text><path d="M1815.44 2310.55C1817.36 2310.55 1819.13 2310.66 1820.75 2310.9 1822.37 2311.14 1823.94 2311.49 1825.47 2311.95L1824.04 2318.68 1821.39 2318.68C1821.17 2316.89 1820.58 2315.57 1819.62 2314.72 1818.66 2313.86 1817.16 2313.43 1815.14 2313.43 1814.32 2313.43 1813.57 2313.54 1812.87 2313.76 1812.18 2313.98 1811.58 2314.28 1811.09 2314.67 1810.59 2315.06 1810.2 2315.52 1809.93 2316.06 1809.65 2316.59 1809.51 2317.18 1809.51 2317.81 1809.51 2318.39 1809.58 2318.92 1809.72 2319.39 1809.86 2319.87 1810.13 2320.33 1810.54 2320.79 1810.94 2321.25 1811.52 2321.72 1812.26 2322.22 1813.01 2322.72 1813.99 2323.28 1815.2 2323.92 1816.47 2324.61 1817.53 2325.28 1818.37 2325.91 1819.21 2326.55 1819.88 2327.2 1820.38 2327.85 1820.88 2328.51 1821.22 2329.21 1821.42 2329.95 1821.62 2330.7 1821.72 2331.52 1821.72 2332.44 1821.72 2333.85 1821.43 2335.11 1820.86 2336.24 1820.28 2337.36 1819.48 2338.31 1818.44 2339.08 1817.41 2339.85 1816.2 2340.45 1814.8 2340.87 1813.4 2341.28 1811.86 2341.49 1810.19 2341.49 1808.37 2341.49 1806.57 2341.37 1804.8 2341.13 1803.04 2340.9 1801.17 2340.49 1799.2 2339.91L1800.75 2333.12 1803.34 2333.12C1803.44 2334.97 1804.02 2336.35 1805.09 2337.28 1806.15 2338.2 1807.79 2338.66 1810.02 2338.66 1812 2338.66 1813.56 2338.24 1814.71 2337.38 1815.85 2336.53 1816.42 2335.34 1816.42 2333.81 1816.42 2333.11 1816.35 2332.51 1816.21 2332.01 1816.07 2331.5 1815.8 2331.02 1815.39 2330.56 1814.98 2330.1 1814.43 2329.63 1813.72 2329.15 1813.02 2328.66 1812.1 2328.1 1810.97 2327.46 1809.8 2326.81 1808.79 2326.16 1807.95 2325.53 1807.1 2324.89 1806.41 2324.25 1805.86 2323.59 1805.31 2322.94 1804.91 2322.25 1804.65 2321.54 1804.4 2320.82 1804.27 2320.06 1804.27 2319.24 1804.27 2317.99 1804.53 2316.83 1805.06 2315.77 1805.58 2314.71 1806.33 2313.79 1807.3 2313.02 1808.28 2312.24 1809.45 2311.64 1810.82 2311.2 1812.19 2310.76 1813.73 2310.55 1815.44 2310.55Z" fill-rule="evenodd"/><text fill="#000000" fill-opacity="0" font-family="Arial,Arial_MSFontService,sans-serif" font-size="30.9468" x="1799.2" y="2337.62">𝑠</text><path d="M851.155 1547.88C853.101 1547.88 854.505 1548.39 855.37 1549.4 856.235 1550.41 856.667 1551.77 856.667 1553.47 856.667 1554.77 856.437 1556.26 855.978 1557.93 855.519 1559.61 854.87 1561.38 854.033 1563.24 853.195 1565.1 852.195 1567.02 851.034 1568.97 849.872 1570.93 848.589 1572.84 847.184 1574.69 845.779 1576.54 844.279 1578.28 842.685 1579.92 841.091 1581.55 839.436 1582.98 837.72 1584.19 836.005 1585.41 834.262 1586.37 832.492 1587.09 830.723 1587.81 828.96 1588.16 827.204 1588.16 826.42 1588.16 825.765 1587.97 825.238 1587.58 824.711 1587.19 824.286 1586.63 823.961 1585.92 823.637 1585.2 823.407 1584.35 823.272 1583.38 823.137 1582.41 823.07 1581.34 823.07 1580.18 823.07 1578.64 823.164 1576.99 823.353 1575.24 823.543 1573.48 823.786 1571.71 824.083 1569.93L825.785 1558.7C825.893 1558.05 825.981 1557.44 826.049 1556.86 826.116 1556.28 826.15 1555.85 826.15 1555.58 826.15 1554.74 826.015 1554.05 825.745 1553.51 825.474 1552.97 825.015 1552.7 824.367 1552.7 823.853 1552.7 823.299 1552.86 822.705 1553.17 822.111 1553.48 821.509 1553.88 820.902 1554.36 820.294 1554.85 819.706 1555.37 819.139 1555.92 818.571 1556.48 818.044 1557 817.558 1557.49L815.613 1555.22C816.45 1554.35 817.342 1553.49 818.288 1552.64 819.233 1551.79 820.233 1551.02 821.287 1550.33 822.34 1549.64 823.448 1549.09 824.61 1548.67 825.772 1548.25 826.96 1548.04 828.176 1548.04 829.203 1548.04 830.04 1548.21 830.689 1548.55 831.337 1548.89 831.844 1549.33 832.209 1549.89 832.573 1550.44 832.823 1551.05 832.958 1551.71 833.094 1552.37 833.161 1553.03 833.161 1553.68 833.161 1554.05 833.148 1554.42 833.121 1554.77 833.094 1555.12 833.053 1555.45 832.999 1555.74L830.729 1570.41C830.486 1571.95 830.284 1573.46 830.122 1574.93 829.959 1576.4 829.878 1577.71 829.878 1578.84 829.878 1579.98 829.946 1580.9 830.081 1581.6 830.216 1582.3 830.473 1582.65 830.851 1582.65 831.743 1582.65 832.864 1582.29 834.215 1581.58 835.566 1580.86 836.984 1579.88 838.47 1578.62 839.956 1577.36 841.442 1575.88 842.928 1574.16 844.414 1572.45 845.752 1570.59 846.94 1568.59 848.129 1566.59 849.095 1564.48 849.838 1562.27 850.581 1560.05 850.953 1557.82 850.953 1555.58 850.953 1554.61 850.743 1553.86 850.324 1553.33 849.906 1552.8 849.25 1552.54 848.359 1552.54 847.224 1552.54 846.177 1552.98 845.218 1553.86 844.259 1554.74 843.266 1555.89 842.239 1557.32L839.929 1555.26C840.578 1554.28 841.341 1553.35 842.219 1552.46 843.097 1551.57 844.029 1550.78 845.015 1550.11 846.001 1549.43 847.021 1548.89 848.075 1548.49 849.129 1548.08 850.156 1547.88 851.155 1547.88Z" fill-rule="evenodd"/><text fill="#000000" fill-opacity="0" font-family="Arial,Arial_MSFontService,sans-serif" font-size="40.2842" x="815.613" y="1583.13">𝑣</text><path d="M931.414 1525.36C939.304 1527.44 945.362 1531.93 949.591 1538.84 953.819 1545.74 955.933 1554.07 955.933 1563.82 955.933 1573.6 953.826 1581.93 949.611 1588.81 945.396 1595.68 939.331 1600.16 931.414 1602.24L930.442 1599.12C936.683 1597.04 941.323 1592.93 944.363 1586.8 947.402 1580.67 948.922 1572.87 948.922 1563.42 948.922 1554.28 947.409 1546.7 944.383 1540.66 941.357 1534.62 936.669 1530.56 930.32 1528.48ZM891.684 1525.36 892.778 1528.48C886.456 1530.56 881.775 1534.62 878.735 1540.66 875.695 1546.7 874.176 1554.28 874.176 1563.42 874.176 1572.87 875.695 1580.67 878.735 1586.8 881.775 1592.93 886.415 1597.04 892.656 1599.12L891.684 1602.24C883.767 1600.16 877.702 1595.68 873.487 1588.81 869.272 1581.93 867.164 1573.6 867.164 1563.82 867.164 1554.07 869.279 1545.74 873.507 1538.84 877.735 1531.93 883.794 1527.44 891.684 1525.36Z" fill-rule="evenodd"/><path d="M909.953 1538.72 915.546 1538.72 913.317 1548.73 925.637 1548.73 924.746 1552.82 912.425 1552.82 908.818 1568.55C908.116 1571.6 907.67 1573.8 907.481 1575.13 907.292 1576.47 907.197 1577.55 907.197 1578.36 907.197 1581.71 908.589 1583.38 911.372 1583.38 912.56 1583.38 913.824 1582.93 915.161 1582.02 916.498 1581.12 918.086 1579.57 919.923 1577.38L922.274 1579.82C919.923 1582.65 917.66 1584.75 915.485 1586.1 913.31 1587.45 911.034 1588.12 908.656 1588.12 903.01 1588.12 900.186 1585.27 900.186 1579.57 900.186 1577.76 900.416 1575.86 900.875 1573.86L905.657 1552.82 898.849 1552.82 899.457 1550.03C901.051 1550 902.26 1549.88 903.084 1549.66 903.908 1549.45 904.597 1549.15 905.151 1548.77 905.705 1548.39 906.211 1547.85 906.671 1547.15 907.13 1546.45 907.576 1545.55 908.008 1544.46 908.44 1543.36 909.089 1541.45 909.953 1538.72Z" fill-rule="evenodd"/><text fill="#000000" fill-opacity="0" font-family="Arial,Arial_MSFontService,sans-serif" font-size="49.4028" x="898.849" y="1581.95">𝑡</text><path d="M968.448 1578.07 975.54 1578.07C975.919 1579.96 976.108 1581.83 976.108 1583.67 976.108 1585.56 975.784 1587.29 975.135 1588.85 974.487 1590.42 973.453 1591.98 972.035 1593.53 970.616 1595.09 968.664 1596.8 966.179 1598.66L963.99 1596.19C965.368 1594.89 966.368 1593.72 966.989 1592.68 967.611 1591.64 968.056 1590.46 968.327 1589.14 968.597 1587.81 968.732 1586.15 968.732 1584.15 968.732 1582.1 968.637 1580.07 968.448 1578.07Z" fill-rule="evenodd"/><text fill="#000000" fill-opacity="0" font-family="Arial,Arial_MSFontService,sans-serif" font-size="20.5879" x="963.99" y="1596.09">,</text><path d="M1032.33 1547.88C1034.28 1547.88 1035.68 1548.39 1036.55 1549.4 1037.41 1550.41 1037.85 1551.77 1037.85 1553.47 1037.85 1554.77 1037.62 1556.26 1037.16 1557.93 1036.7 1559.61 1036.05 1561.38 1035.21 1563.24 1034.37 1565.1 1033.37 1567.02 1032.21 1568.97 1031.05 1570.93 1029.77 1572.84 1028.36 1574.69 1026.96 1576.54 1025.46 1578.28 1023.86 1579.92 1022.27 1581.55 1020.62 1582.98 1018.9 1584.19 1017.18 1585.41 1015.44 1586.37 1013.67 1587.09 1011.9 1587.81 1010.14 1588.16 1008.38 1588.16 1007.6 1588.16 1006.94 1587.97 1006.42 1587.58 1005.89 1587.19 1005.46 1586.63 1005.14 1585.92 1004.82 1585.2 1004.59 1584.35 1004.45 1583.38 1004.32 1582.41 1004.25 1581.34 1004.25 1580.18 1004.25 1578.64 1004.34 1576.99 1004.53 1575.24 1004.72 1573.48 1004.96 1571.71 1005.26 1569.93L1006.96 1558.7C1007.07 1558.05 1007.16 1557.44 1007.23 1556.86 1007.3 1556.28 1007.33 1555.85 1007.33 1555.58 1007.33 1554.74 1007.19 1554.05 1006.92 1553.51 1006.65 1552.97 1006.19 1552.7 1005.55 1552.7 1005.03 1552.7 1004.48 1552.86 1003.88 1553.17 1003.29 1553.48 1002.69 1553.88 1002.08 1554.36 1001.47 1554.85 1000.89 1555.37 1000.32 1555.92 999.75 1556.48 999.224 1557 998.737 1557.49L996.792 1555.22C997.629 1554.35 998.521 1553.49 999.467 1552.64 1000.41 1551.79 1001.41 1551.02 1002.47 1550.33 1003.52 1549.64 1004.63 1549.09 1005.79 1548.67 1006.95 1548.25 1008.14 1548.04 1009.36 1548.04 1010.38 1548.04 1011.22 1548.21 1011.87 1548.55 1012.52 1548.89 1013.02 1549.33 1013.39 1549.89 1013.75 1550.44 1014 1551.05 1014.14 1551.71 1014.27 1552.37 1014.34 1553.03 1014.34 1553.68 1014.34 1554.05 1014.33 1554.42 1014.3 1554.77 1014.27 1555.12 1014.23 1555.45 1014.18 1555.74L1011.91 1570.41C1011.67 1571.95 1011.46 1573.46 1011.3 1574.93 1011.14 1576.4 1011.06 1577.71 1011.06 1578.84 1011.06 1579.98 1011.13 1580.9 1011.26 1581.6 1011.4 1582.3 1011.65 1582.65 1012.03 1582.65 1012.92 1582.65 1014.04 1582.29 1015.39 1581.58 1016.74 1580.86 1018.16 1579.88 1019.65 1578.62 1021.14 1577.36 1022.62 1575.88 1024.11 1574.16 1025.59 1572.45 1026.93 1570.59 1028.12 1568.59 1029.31 1566.59 1030.27 1564.48 1031.02 1562.27 1031.76 1560.05 1032.13 1557.82 1032.13 1555.58 1032.13 1554.61 1031.92 1553.86 1031.5 1553.33 1031.08 1552.8 1030.43 1552.54 1029.54 1552.54 1028.4 1552.54 1027.36 1552.98 1026.4 1553.86 1025.44 1554.74 1024.45 1555.89 1023.42 1557.32L1021.11 1555.26C1021.76 1554.28 1022.52 1553.35 1023.4 1552.46 1024.28 1551.57 1025.21 1550.78 1026.19 1550.11 1027.18 1549.43 1028.2 1548.89 1029.25 1548.49 1030.31 1548.08 1031.33 1547.88 1032.33 1547.88Z" fill-rule="evenodd"/><text fill="#000000" fill-opacity="0" font-family="Arial,Arial_MSFontService,sans-serif" font-size="40.2842" x="996.792" y="1583.13">𝑣</text><path d="M1072.86 1528.91 1073.96 1532.03C1067.63 1534.11 1062.95 1538.17 1059.91 1544.21 1056.87 1550.25 1055.35 1557.84 1055.35 1566.97 1055.35 1576.43 1056.87 1584.22 1059.91 1590.35 1062.95 1596.49 1067.59 1600.59 1073.84 1602.67L1072.86 1605.79C1064.95 1603.71 1058.88 1599.24 1054.67 1592.36 1050.45 1585.48 1048.34 1577.15 1048.34 1567.37 1048.34 1557.62 1050.46 1549.29 1054.69 1542.39 1058.91 1535.49 1064.97 1530.99 1072.86 1528.91Z" fill-rule="evenodd"/><text fill="#000000" fill-opacity="0" font-family="Arial,Arial_MSFontService,sans-serif" font-size="76.8804" x="1048.34" y="1596.18">(</text><path d="M1091.27 1538.72 1096.86 1538.72 1094.63 1548.73 1106.95 1548.73 1106.06 1552.82 1093.74 1552.82 1090.14 1568.55C1089.43 1571.6 1088.99 1573.8 1088.8 1575.13 1088.61 1576.47 1088.51 1577.55 1088.51 1578.36 1088.51 1581.71 1089.91 1583.38 1092.69 1583.38 1093.88 1583.38 1095.14 1582.93 1096.48 1582.02 1097.82 1581.12 1099.4 1579.57 1101.24 1577.38L1103.59 1579.82C1101.24 1582.65 1098.98 1584.75 1096.8 1586.1 1094.63 1587.45 1092.35 1588.12 1089.97 1588.12 1084.33 1588.12 1081.5 1585.27 1081.5 1579.57 1081.5 1577.76 1081.73 1575.86 1082.19 1573.86L1086.97 1552.82 1080.17 1552.82 1080.77 1550.03C1082.37 1550 1083.58 1549.88 1084.4 1549.66 1085.22 1549.45 1085.91 1549.15 1086.47 1548.77 1087.02 1548.39 1087.53 1547.85 1087.99 1547.15 1088.45 1546.45 1088.89 1545.55 1089.32 1544.46 1089.76 1543.36 1090.41 1541.45 1091.27 1538.72Z" fill-rule="evenodd"/><text fill="#000000" fill-opacity="0" font-family="Arial,Arial_MSFontService,sans-serif" font-size="49.4028" x="1080.17" y="1581.95">𝑡</text><path d="M1112.73 1528.91C1120.62 1530.99 1126.68 1535.49 1130.91 1542.39 1135.14 1549.29 1137.25 1557.62 1137.25 1567.37 1137.25 1577.15 1135.14 1585.48 1130.93 1592.36 1126.71 1599.24 1120.65 1603.71 1112.73 1605.79L1111.76 1602.67C1118 1600.59 1122.64 1596.49 1125.68 1590.35 1128.72 1584.22 1130.24 1576.43 1130.24 1566.97 1130.24 1557.84 1128.73 1550.25 1125.7 1544.21 1122.67 1538.17 1117.99 1534.11 1111.64 1532.03Z" fill-rule="evenodd"/><text fill="#000000" fill-opacity="0" font-family="Arial,Arial_MSFontService,sans-serif" font-size="76.8804" x="1111.64" y="1596.18">)</text><path d="M1069.14 1512.22C1070.41 1512.22 1071.47 1512.67 1072.34 1513.58 1073.2 1514.48 1073.64 1515.62 1073.64 1517 1073.64 1518.38 1073.2 1519.52 1072.34 1520.43 1071.47 1521.33 1070.41 1521.78 1069.14 1521.78 1067.84 1521.78 1066.76 1521.33 1065.9 1520.43 1065.03 1519.52 1064.6 1518.38 1064.6 1517 1064.6 1515.62 1065.03 1514.48 1065.9 1513.58 1066.76 1512.67 1067.84 1512.22 1069.14 1512.22Z" fill-rule="evenodd"/><text fill="#000000" fill-opacity="0" font-family="Arial,Arial_MSFontService,sans-serif" font-size="9.56445" x="1064.6" y="1520.59">ሶ</text><path d="M1554.44 1899.17 1596.75 1899.17 1593.59 1913.44 1589.7 1913.44C1589.7 1910.82 1589.64 1908.85 1589.5 1907.54 1589.37 1906.23 1589.11 1905.23 1588.73 1904.54 1588.35 1903.86 1587.89 1903.38 1587.33 1903.13 1586.78 1902.87 1585.8 1902.74 1584.39 1902.74L1578.4 1902.74 1569.6 1942.7C1569.36 1943.75 1569.19 1944.59 1569.09 1945.21 1569 1945.84 1568.92 1946.49 1568.85 1947.18 1568.78 1947.87 1568.75 1948.48 1568.75 1949.02 1568.75 1949.86 1568.89 1950.52 1569.16 1950.99 1569.43 1951.46 1569.83 1951.81 1570.37 1952.02 1570.91 1952.24 1571.84 1952.4 1573.17 1952.51L1572.72 1954.49 1555.66 1954.49 1556.11 1952.51C1557.19 1952.35 1557.98 1952.13 1558.5 1951.86 1559.01 1951.59 1559.46 1951.17 1559.85 1950.6 1560.25 1950.04 1560.64 1949.14 1561.03 1947.93 1561.42 1946.71 1561.89 1944.88 1562.43 1942.42L1571.1 1902.74 1565.95 1902.74C1564.28 1902.74 1562.94 1902.98 1561.94 1903.47 1560.94 1903.96 1559.94 1904.86 1558.94 1906.19 1557.94 1907.51 1556.73 1909.73 1555.3 1912.83L1551.4 1912.83Z" fill-rule="evenodd"/><text fill="#000000" fill-opacity="0" font-family="Arial,Arial_MSFontService,sans-serif" font-size="55.3198" x="1551.4" y="1947.58">𝑇</text><path d="M1574.48 2016.16C1579.51 2016.16 1583.31 2017.26 1585.87 2019.46 1588.44 2021.66 1589.72 2024.86 1589.72 2029.05 1589.72 2030.48 1589.58 2031.79 1589.3 2033 1589.01 2034.2 1588.57 2035.39 1587.96 2036.56 1587.35 2037.74 1586.53 2039 1585.51 2040.35 1584.48 2041.7 1583.35 2043.07 1582.1 2044.47 1580.86 2045.86 1578.71 2048.17 1575.66 2051.42 1570.53 2056.85 1566.76 2061.59 1564.35 2065.64L1579.63 2065.64C1580.95 2065.64 1582.02 2065.56 1582.83 2065.4 1583.64 2065.24 1584.29 2064.97 1584.78 2064.59 1585.26 2064.21 1585.65 2063.72 1585.93 2063.11 1586.22 2062.5 1586.57 2061.56 1587.01 2060.29L1590.45 2060.29 1589.76 2072.13 1556.41 2072.13 1556.41 2070.18C1557.57 2067.34 1559.14 2064.44 1561.11 2061.47 1563.08 2058.5 1565.88 2055 1569.5 2050.97 1572.63 2047.51 1574.89 2044.89 1576.27 2043.11 1577.78 2041.16 1578.91 2039.48 1579.65 2038.06 1580.39 2036.64 1580.93 2035.31 1581.25 2034.05 1581.58 2032.79 1581.74 2031.53 1581.74 2030.26 1581.74 2028.23 1581.41 2026.44 1580.77 2024.89 1580.12 2023.34 1579.12 2022.11 1577.79 2021.22 1576.45 2020.33 1574.77 2019.89 1572.74 2019.89 1567.69 2019.89 1564.28 2022.7 1562.53 2028.32L1557.62 2028.32 1557.62 2020.53C1560.89 2018.99 1563.95 2017.88 1566.8 2017.19 1569.65 2016.5 1572.21 2016.16 1574.48 2016.16Z" fill-rule="evenodd"/><text fill="#000000" fill-opacity="0" font-family="Arial,Arial_MSFontService,sans-serif" font-size="55.9683" x="1556.41" y="2065.13">2</text><path d="M1548.16 1990.94 1565.16 1990.94 1582.16 1990.94 1599.16 1990.94 1599.16 1995.94 1582.16 1995.94 1565.16 1995.94 1548.16 1995.94Z" fill-rule="evenodd"/><path d="M1279.5 2098.5C1279.5 2062.05 1309.05 2032.5 1345.5 2032.5 1381.95 2032.5 1411.5 2062.05 1411.5 2098.5 1411.5 2134.95 1381.95 2164.5 1345.5 2164.5 1309.05 2164.5 1279.5 2134.95 1279.5 2098.5Z" stroke="#FFFFFF" stroke-width="6.875" stroke-miterlimit="8" fill="#FFFFFF" fill-rule="evenodd"/><path d="M2433.5 2100.5C2433.5 2064.05 2463.05 2034.5 2499.5 2034.5 2535.95 2034.5 2565.5 2064.05 2565.5 2100.5 2565.5 2136.95 2535.95 2166.5 2499.5 2166.5 2463.05 2166.5 2433.5 2136.95 2433.5 2100.5Z" stroke="#FFFFFF" stroke-width="6.875" stroke-miterlimit="8" fill="#FFFFFF" fill-rule="evenodd"/></g></svg>