<svg width="2875" height="970" xmlns="http://www.w3.org/2000/svg" xmlns:xlink="http://www.w3.org/1999/xlink" xml:space="preserve" overflow="hidden"><g transform="translate(-571 -488)"><rect x="695.5" y="502.5" width="544" height="140" stroke="#000000" stroke-width="6.875" stroke-miterlimit="8" fill="none"/><text font-family="DengXian,DengXian_MSFontService,sans-serif" font-weight="700" font-size="48" transform="matrix(1 0 0 1 747.995 588)">Brake Pedal Pressed</text><rect x="695.5" y="711.5" width="544" height="140" stroke="#000000" stroke-width="6.875" stroke-miterlimit="8" fill="none"/><text font-family="DengXian,DengXian_MSFontService,sans-serif" font-weight="700" font-size="48" transform="matrix(1 0 0 1 813.307 768)">Throttle Pedal </text><text font-family="DengXian,DengXian_MSFontService,sans-serif" font-weight="700" font-size="48" transform="matrix(1 0 0 1 878.895 826)">Position</text><rect x="695.5" y="921.5" width="544" height="139" stroke="#000000" stroke-width="6.875" stroke-miterlimit="8" fill="none"/><text font-family="DengXian,DengXian_MSFontService,sans-serif" font-weight="700" font-size="41" transform="matrix(1 0 0 1 741.693 980)">Automatic Transmission </text><text font-family="DengXian,DengXian_MSFontService,sans-serif" font-weight="700" font-size="41" transform="matrix(1 0 0 1 837.943 1029)">Selector State</text><rect x="695.5" y="1130.5" width="544" height="139" stroke="#000000" stroke-width="6.875" stroke-miterlimit="8" fill="none"/><text font-family="DengXian,DengXian_MSFontService,sans-serif" font-weight="700" font-size="48" transform="matrix(1 0 0 1 732.812 1216)">Vehicle Speed (km/h)</text><rect x="1499.5" y="502.5" width="442" height="767" stroke="#000000" stroke-width="6.875" stroke-miterlimit="8" fill="none"/><text font-family="DengXian,DengXian_MSFontService,sans-serif" font-weight="700" font-size="64" transform="matrix(1 0 0 1 1571.28 869)">One Pedal </text><text font-family="DengXian,DengXian_MSFontService,sans-serif" font-weight="700" font-size="64" transform="matrix(1 0 0 1 1574.42 946)">Controller</text><rect x="2201.5" y="711.5" width="442" height="140" stroke="#000000" stroke-width="6.875" stroke-miterlimit="8" fill="none"/><text font-family="DengXian,DengXian_MSFontService,sans-serif" font-weight="700" font-size="41" transform="matrix(1 0 0 1 2274.18 771)">Torque Request </text><text font-family="DengXian,DengXian_MSFontService,sans-serif" font-weight="700" font-size="41" transform="matrix(1 0 0 1 2374.15 820)">(Nm)</text><rect x="2201.5" y="921.5" width="442" height="139" stroke="#000000" stroke-width="6.875" stroke-miterlimit="8" fill="none"/><text font-family="DengXian,DengXian_MSFontService,sans-serif" font-weight="700" font-size="41" transform="matrix(1 0 0 1 2324.6 980)">Automatic </text><text font-family="DengXian,DengXian_MSFontService,sans-serif" font-weight="700" font-size="41" transform="matrix(1 0 0 1 2246.11 1029)">Transmission State</text><rect x="2903.5" y="502.5" width="442" height="767" stroke="#000000" stroke-width="6.875" stroke-miterlimit="8" fill="none"/><text font-family="DengXian,DengXian_MSFontService,sans-serif" font-weight="700" font-size="64" transform="matrix(1 0 0 1 3050.14 907)">Plant</text><path d="M1239.5 569.062 1476.49 569.063 1476.49 575.938 1239.5 575.937ZM1471.9 558.75 1499.4 572.5 1471.9 586.25Z" fill="#156082"/><path d="M4.77318e-06-3.4375 236.987-3.43717 236.987 3.43783-4.77318e-06 3.4375ZM232.404-13.7497 259.904 0.000360892 232.404 13.7503Z" fill="#156082" transform="matrix(1 0 0 -1 1239.5 781.5)"/><path d="M4.77318e-06-3.4375 236.987-3.43717 236.987 3.43783-4.77318e-06 3.4375ZM232.404-13.7497 259.904 0.000360892 232.404 13.7503Z" fill="#156082" transform="matrix(1 0 0 -1 1239.5 990.5)"/><path d="M4.77318e-06-3.4375 236.987-3.43717 236.987 3.43783-4.77318e-06 3.4375ZM232.404-13.7497 259.904 0.000360892 232.404 13.7503Z" fill="#156082" transform="matrix(1 0 0 -1 1239.5 1199.5)"/><path d="M4.77318e-06-3.4375 236.987-3.43717 236.987 3.43783-4.77318e-06 3.4375ZM232.404-13.7497 259.904 0.000360892 232.404 13.7503Z" fill="#156082" transform="matrix(1 0 0 -1 1941.5 781.5)"/><path d="M4.77318e-06-3.4375 236.987-3.43717 236.987 3.43783-4.77318e-06 3.4375ZM232.404-13.7497 259.904 0.000360892 232.404 13.7503Z" fill="#156082" transform="matrix(1 0 0 -1 1941.5 990.5)"/><path d="M4.77318e-06-3.4375 236.987-3.43717 236.987 3.43783-4.77318e-06 3.4375ZM232.404-13.7497 259.904 0.000360892 232.404 13.7503Z" fill="#156082" transform="matrix(1 0 0 -1 2643.5 781.5)"/><text font-family="DengXian,DengXian_MSFontService,sans-serif" font-weight="700" font-size="46" transform="matrix(1 0 0 1 1322.09 547)">CAN</text><text font-family="DengXian,DengXian_MSFontService,sans-serif" font-weight="700" font-size="46" transform="matrix(1 0 0 1 1294.87 747)">Analog</text><text font-family="DengXian,DengXian_MSFontService,sans-serif" font-weight="700" font-size="46" transform="matrix(1 0 0 1 1322.09 965)">CAN</text><text font-family="DengXian,DengXian_MSFontService,sans-serif" font-weight="700" font-size="46" transform="matrix(1 0 0 1 1322.09 1165)">CAN</text><text font-family="DengXian,DengXian_MSFontService,sans-serif" font-weight="700" font-size="46" transform="matrix(1 0 0 1 2023.85 754)">CAN</text><text font-family="DengXian,DengXian_MSFontService,sans-serif" font-weight="700" font-size="46" transform="matrix(1 0 0 1 2023.85 954)">CAN</text><text font-family="DengXian,DengXian_MSFontService,sans-serif" font-weight="700" font-size="46" transform="matrix(1 0 0 1 2725.61 748)">CAN</text><path d="M0 3.4375-96.7978 3.4375-93.3603 0-93.3603 567.354-96.7978 563.916 2769.85 563.916 2766.42 567.354 2766.42 313.727 2769.85 317.164 2672.74 317.164 2672.74 310.289 2773.29 310.289 2773.29 570.791-100.235 570.791-100.235-3.4375 0-3.4375ZM2677.32 327.477 2649.82 313.727 2677.32 299.977Z" fill="#156082" transform="matrix(-1 0 0 1 3345.32 886.5)"/><text font-family="DengXian,DengXian_MSFontService,sans-serif" font-weight="700" font-size="46" transform="matrix(1 0 0 1 1972.51 1417)">CAN</text></g></svg>